<svg width="36" height="36" viewBox="0 0 36 36" fill="none" xmlns="http://www.w3.org/2000/svg">
<rect width="36" height="36" rx="18" fill="#F2F8FB"/>
<path fill-rule="evenodd" clip-rule="evenodd" d="M20.3526 8.76109L20.382 8.73167L21.4415 7.67224L21.4709 7.6428C21.8165 7.29714 22.1224 6.99123 22.3966 6.75842C22.6886 6.51051 23.0178 6.28023 23.4289 6.14666C24.0308 5.95111 24.6791 5.95111 25.2808 6.14666C25.6919 6.28023 26.0211 6.51051 26.3132 6.75842C26.5874 6.99123 26.8933 7.29714 27.2389 7.6428L27.2684 7.67224L28.3278 8.73167L28.3572 8.7611C28.7028 9.1067 29.0088 9.41263 29.2416 9.68684C29.4895 9.97886 29.7198 10.3081 29.8534 10.7191C30.0489 11.321 30.0489 11.9692 29.8534 12.5711C29.7198 12.9822 29.4895 13.3114 29.2416 13.6033C29.0088 13.8776 28.7029 14.1835 28.3572 14.5291L28.3278 14.5585L27.2684 15.618L27.2389 15.6474C26.8933 15.993 26.5874 16.299 26.3132 16.5318C26.0211 16.7797 25.6919 17.01 25.2808 17.1435C24.6791 17.3391 24.0308 17.3391 23.4289 17.1435C23.0178 17.01 22.6886 16.7797 22.3966 16.5318C22.1224 16.299 21.8165 15.993 21.4709 15.6474L21.4415 15.618L20.382 14.5585L20.3526 14.5291C20.0069 14.1835 19.701 13.8776 19.4682 13.6033C19.2203 13.3114 18.99 12.9822 18.8564 12.5711C18.6609 11.9692 18.6609 11.321 18.8564 10.7191C18.99 10.3081 19.2203 9.97886 19.4682 9.68684C19.701 9.41261 20.0069 9.10672 20.3526 8.76109ZM21.1815 11.1413C21.0238 11.327 20.9992 11.3971 20.9938 11.4136C20.945 11.5641 20.945 11.7261 20.9938 11.8766C20.9992 11.8931 21.0238 11.9632 21.1815 12.1489C21.3477 12.3446 21.5872 12.5854 21.9711 12.9694L23.0306 14.0288C23.4146 14.4128 23.6554 14.6523 23.8511 14.8185C24.0368 14.9762 24.1069 15.0007 24.1234 15.0062C24.2739 15.055 24.4359 15.055 24.5864 15.0062C24.6029 15.0007 24.673 14.9762 24.8587 14.8185C25.0545 14.6523 25.2953 14.4128 25.6792 14.0288L26.7386 12.9694C27.1226 12.5854 27.3621 12.3446 27.5283 12.1489C27.686 11.9632 27.7106 11.8931 27.7159 11.8766C27.7649 11.7261 27.7649 11.5641 27.7159 11.4136C27.7106 11.3971 27.686 11.327 27.5283 11.1413C27.3621 10.9456 27.1226 10.7048 26.7386 10.3208L25.6792 9.26138C25.2953 8.87744 25.0545 8.63788 24.8587 8.4717C24.673 8.31404 24.6029 8.28943 24.5864 8.28406C24.4359 8.23517 24.2739 8.23517 24.1234 8.28406C24.1069 8.28943 24.0368 8.31404 23.8511 8.4717C23.6554 8.63788 23.4146 8.87744 23.0306 9.26138L21.9711 10.3208C21.5872 10.7048 21.3477 10.9456 21.1815 11.1413ZM12.6185 16.5145H12.6601C13.1489 16.5145 13.5815 16.5145 13.9401 16.4852C14.3219 16.454 14.7175 16.3841 15.1026 16.1879C15.6665 15.9005 16.1249 15.4422 16.4122 14.8783C16.6084 14.4932 16.6783 14.0976 16.7095 13.7158C16.7388 13.3573 16.7388 12.9247 16.7388 12.4359V12.3942V10.896V10.8544C16.7388 10.3655 16.7388 9.93293 16.7095 9.5744C16.6783 9.19261 16.6084 8.797 16.4122 8.41188C16.1249 7.84805 15.6665 7.38964 15.1026 7.10235C14.7175 6.90612 14.3219 6.83619 13.9401 6.805C13.5815 6.77571 13.149 6.77573 12.6601 6.77575H12.6185H11.1202H11.0786C10.5898 6.77573 10.1572 6.77571 9.79866 6.805C9.41687 6.83619 9.02127 6.90612 8.63614 7.10235C8.0723 7.38964 7.61389 7.84805 7.32661 8.41188C7.13038 8.797 7.06045 9.19261 7.02925 9.5744C6.99996 9.9329 6.99998 10.3655 7 10.8543L7 10.896L7 12.3942L7 12.4359C6.99998 12.9247 6.99996 13.3573 7.02925 13.7158C7.06045 14.0976 7.13038 14.4932 7.32661 14.8783C7.61389 15.4422 8.0723 15.9005 8.63614 16.1879C9.02127 16.3841 9.41687 16.454 9.79866 16.4852C10.1572 16.5145 10.5898 16.5145 11.0786 16.5145H11.1202H12.6185ZM14.0823 14.1854C14.0668 14.1933 13.9999 14.2255 13.7571 14.2453C13.5012 14.2662 13.1615 14.267 12.6185 14.267H11.1202C10.5773 14.267 10.2376 14.2662 9.98167 14.2453C9.73886 14.2255 9.67194 14.1933 9.65644 14.1854C9.51548 14.1136 9.40088 13.999 9.32906 13.858C9.32116 13.8425 9.28903 13.7756 9.26919 13.5328C9.24828 13.2769 9.24741 12.9372 9.24741 12.3942V10.896C9.24741 10.353 9.24828 10.0133 9.26919 9.75741C9.28903 9.5146 9.32116 9.44767 9.32906 9.43217C9.40088 9.29122 9.51548 9.17661 9.65644 9.10479C9.67194 9.0969 9.73886 9.06477 9.98167 9.04492C10.2376 9.02402 10.5773 9.02314 11.1202 9.02314H12.6185C13.1615 9.02314 13.5012 9.02402 13.7571 9.04493C13.9999 9.06477 14.0668 9.0969 14.0823 9.10479C14.2232 9.17661 14.3379 9.29122 14.4097 9.43217C14.4176 9.44767 14.4497 9.5146 14.4695 9.75741C14.4905 10.0133 14.4914 10.353 14.4914 10.896V12.3942C14.4914 12.9372 14.4905 13.2769 14.4695 13.5328C14.4497 13.7756 14.4176 13.8425 14.4097 13.858C14.3379 13.999 14.2232 14.1136 14.0823 14.1854ZM12.6185 29H12.6601C13.1489 29 13.5816 29 13.9401 28.9707C14.3219 28.9395 14.7175 28.8696 15.1026 28.6734C15.6665 28.3861 16.1249 27.9277 16.4122 27.3638C16.6084 26.9787 16.6783 26.5831 16.7095 26.2013C16.7388 25.8428 16.7388 25.4102 16.7388 24.9214V24.8798V23.3815V23.3399C16.7388 22.8511 16.7388 22.4185 16.7095 22.0599C16.6783 21.6781 16.6084 21.2825 16.4122 20.8974C16.1249 20.3336 15.6665 19.8752 15.1026 19.5879C14.7175 19.3916 14.3219 19.3217 13.9401 19.2905C13.5816 19.2612 13.149 19.2613 12.6602 19.2613H12.6185H11.1202H11.0786C10.5898 19.2613 10.1572 19.2612 9.79866 19.2905C9.41687 19.3217 9.02127 19.3916 8.63614 19.5879C8.0723 19.8752 7.61389 20.3336 7.32661 20.8974C7.13038 21.2825 7.06045 21.6781 7.02925 22.0599C6.99996 22.4184 6.99998 22.851 7 23.3398L7 23.3815L7 24.8798L7 24.9214C6.99998 25.4101 6.99996 25.8428 7.02925 26.2013C7.06045 26.5831 7.13038 26.9787 7.32661 27.3638C7.61389 27.9277 8.0723 28.3861 8.63614 28.6734C9.02127 28.8696 9.41687 28.9395 9.79866 28.9707C10.1572 29 10.5897 29 11.0785 29H11.1202H12.6185ZM14.0823 26.6709C14.0668 26.6788 13.9999 26.7109 13.7571 26.7308C13.5012 26.7517 13.1615 26.7526 12.6185 26.7526H11.1202C10.5773 26.7526 10.2376 26.7517 9.98167 26.7308C9.73886 26.7109 9.67194 26.6788 9.65644 26.6709C9.51548 26.5991 9.40088 26.4845 9.32906 26.3436C9.32116 26.328 9.28903 26.2611 9.26919 26.0183C9.24828 25.7624 9.24741 25.4228 9.24741 24.8798V23.3815C9.24741 22.8385 9.24828 22.4988 9.26919 22.2429C9.28903 22.0001 9.32116 21.9332 9.32906 21.9177C9.40088 21.7767 9.51548 21.6621 9.65644 21.5903C9.67194 21.5824 9.73886 21.5503 9.98167 21.5304C10.2376 21.5095 10.5773 21.5087 11.1202 21.5087H12.6185C13.1615 21.5087 13.5012 21.5095 13.7571 21.5304C13.9999 21.5503 14.0668 21.5824 14.0823 21.5903C14.2232 21.6621 14.3379 21.7767 14.4097 21.9177C14.4176 21.9332 14.4497 22.0001 14.4695 22.2429C14.4905 22.4988 14.4914 22.8385 14.4914 23.3815V24.8798C14.4914 25.4228 14.4905 25.7624 14.4695 26.0183C14.4497 26.2611 14.4176 26.328 14.4097 26.3436C14.3379 26.4845 14.2232 26.5991 14.0823 26.6709ZM25.1041 29H25.1457C25.6344 29 26.0671 29 26.4256 28.9707C26.8074 28.9395 27.203 28.8696 27.5882 28.6734C28.152 28.3861 28.6104 27.9277 28.8977 27.3638C29.0939 26.9787 29.1639 26.5831 29.1951 26.2013C29.2244 25.8428 29.2244 25.4102 29.2243 24.9214V24.8798V23.3815V23.3399C29.2244 22.8511 29.2244 22.4185 29.1951 22.0599C29.1639 21.6781 29.0939 21.2825 28.8977 20.8974C28.6104 20.3336 28.152 19.8752 27.5882 19.5879C27.203 19.3916 26.8074 19.3217 26.4256 19.2905C26.0671 19.2612 25.6346 19.2613 25.1458 19.2613H25.1041H23.6058H23.5642C23.0754 19.2613 22.6427 19.2612 22.2842 19.2905C21.9025 19.3217 21.5069 19.3916 21.1217 19.5879C20.5579 19.8752 20.0994 20.3336 19.8122 20.8974C19.6159 21.2825 19.546 21.6781 19.5148 22.0599C19.4855 22.4185 19.4855 22.8511 19.4856 23.3398V23.3815V24.8798V24.9214C19.4855 25.4102 19.4855 25.8428 19.5148 26.2013C19.546 26.5831 19.6159 26.9787 19.8122 27.3638C20.0994 27.9277 20.5579 28.3861 21.1217 28.6734C21.5069 28.8696 21.9025 28.9395 22.2842 28.9707C22.6427 29 23.0753 29 23.5641 29H23.6058H25.1041ZM26.5679 26.6709C26.5524 26.6788 26.4854 26.7109 26.2426 26.7308C25.9867 26.7517 25.647 26.7526 25.1041 26.7526H23.6058C23.0628 26.7526 22.7232 26.7517 22.4673 26.7308C22.2245 26.7109 22.1575 26.6788 22.142 26.6709C22.001 26.5991 21.8864 26.4845 21.8146 26.3436C21.8067 26.328 21.7746 26.2611 21.7548 26.0183C21.7339 25.7624 21.7329 25.4228 21.7329 24.8798V23.3815C21.7329 22.8385 21.7339 22.4988 21.7548 22.2429C21.7746 22.0001 21.8067 21.9332 21.8146 21.9177C21.8864 21.7767 22.001 21.6621 22.142 21.5903C22.1575 21.5824 22.2245 21.5503 22.4673 21.5304C22.7232 21.5095 23.0628 21.5087 23.6058 21.5087H25.1041C25.647 21.5087 25.9867 21.5095 26.2426 21.5304C26.4854 21.5503 26.5524 21.5824 26.5679 21.5903C26.7088 21.6621 26.8235 21.7767 26.8953 21.9177C26.9032 21.9332 26.9353 22.0001 26.9551 22.2429C26.976 22.4988 26.9769 22.8385 26.9769 23.3815V24.8798C26.9769 25.4228 26.976 25.7624 26.9551 26.0183C26.9353 26.2611 26.9032 26.328 26.8953 26.3436C26.8234 26.4845 26.7088 26.5991 26.5679 26.6709Z" fill="#1D7AFF"/>
</svg>
